# xmcd CD database file
#
# Track frame offsets:
#	150
#	16445
#	40810
#	57007
#	75472
#	90975
#	109597
#	132697
#	152037
#	170700
#	190125
#
# Disc length: 2815 seconds
#
# Revision: 1
# Processed by: cddbd v1.5.1PL0 Copyright (c) Steve Scherf et al.
# Submitted via: CDex 1.51
#
DISCID=840afd0b
DTITLE=Mother's Pride - Half Past Heartache
DYEAR=1999
DGENRE=Rock
TTITLE0=Pretend
TTITLE1=Goodbye/Suicide
TTITLE2=Right Place+Time
TTITLE3=Silence
TTITLE4=Luck
TTITLE5=Food For Songs
TTITLE6=Shy
TTITLE7=Shine
TTITLE8=Dont Mind
TTITLE9=Fake
TTITLE10=Seasick For A While
EXTD=YEAR: 1999
EXTT0=
EXTT1=
EXTT2=
EXTT3=
EXTT4=
EXTT5=
EXTT6=
EXTT7=
EXTT8=
EXTT9=
EXTT10=
PLAYORDER=
